<svg xmlns="http://www.w3.org/2000/svg" width="24" height="24" viewBox="0 0 24 24" fill="none">
    <path d="M12 10.3748V21.4575M10 5.53513C10.5883 5.19479 11.2714 5 12 5C12.7286 5 13.4117 5.19479 14 5.53513M8 3.25469C9.13383 2.46381 10.5128 2 12 2C13.4872 2 14.8662 2.46381 16 3.25469M5.59546 8.00877C7.37016 8.20374 9.7545 8.72825 11.4535 9.88568C11.78 10.1081 12.22 10.1081 12.5465 9.88568C14.2455 8.72825 16.6298 8.20374 18.4045 8.00877C19.2829 7.91227 20 8.62535 20 9.50514V18.2666C20 19.1464 19.2829 19.8598 18.4045 19.9563C16.6298 20.1512 14.2455 20.6757 12.5465 21.8332C12.22 22.0556 11.78 22.0556 11.4535 21.8332C9.7545 20.6757 7.37016 20.1512 5.59546 19.9563C4.71714 19.8598 4 19.1464 4 18.2666V9.50514C4 8.62535 4.71714 7.91227 5.59546 8.00877Z" stroke="#868686" stroke-width="1.5" stroke-linecap="round"/>
  </svg>