<svg width="20" height="20" viewBox="0 0 20 20" fill="none" xmlns="http://www.w3.org/2000/svg">
    <g clip-path="url(#cnmeumhgfa)">
        <path d="M10 10h-.75c0 .322.207.609.513.71L10 10zm.75-4.167a.75.75 0 0 0-1.5 0h1.5zm1.513 5.711a.75.75 0 0 0 .474-1.423l-.474 1.423zM10.75 10V5.833h-1.5v4.166h1.5zm-.987.712 2.5.833.474-1.423-2.5-.833-.474 1.423zm7.82-.712A7.583 7.583 0 0 1 10 17.583v1.5a9.083 9.083 0 0 0 9.083-9.084h-1.5zM10 17.583a7.583 7.583 0 0 1-7.583-7.584h-1.5A9.083 9.083 0 0 0 10 19.083v-1.5zM2.417 9.999A7.583 7.583 0 0 1 10 2.416v-1.5A9.083 9.083 0 0 0 .917 9.999h1.5zM10 2.416a7.583 7.583 0 0 1 7.583 7.583h1.5A9.083 9.083 0 0 0 10 .916v1.5z" fill="#333"/>
    </g>
    <defs>
        <clipPath id="cnmeumhgfa">
            <path fill="#fff" d="M0 0h20v20H0z"/>
        </clipPath>
    </defs>
</svg>
