<svg width="20" height="20" viewBox="0 0 20 20" fill="none" xmlns="http://www.w3.org/2000/svg">
    <path d="M8.333 10.488 9.411 9.41a.833.833 0 0 1 1.178 0l1.078 1.078M10 13.82V9.654m3.333-6.321h.834A3.333 3.333 0 0 1 17.5 6.666v8.333a3.333 3.333 0 0 1-3.333 3.334H5.833A3.333 3.333 0 0 1 2.5 14.999V6.666a3.333 3.333 0 0 1 3.333-3.333h.834m6.666 0c0 .92-.746 1.666-1.666 1.666H8.333c-.92 0-1.666-.746-1.666-1.666m6.666 0c0-.92-.746-1.667-1.666-1.667H8.333c-.92 0-1.666.746-1.666 1.667" stroke="#F0F0F0" stroke-width="1.5" stroke-linecap="round"/>
</svg>
