<svg xmlns="http://www.w3.org/2000/svg" width="48" height="48" viewBox="0 0 48 48" fill="none">
    <path d="M21.6411 14.9487C23.8764 14.3295 26.2595 14.5295 28.3604 15.5128C30.4612 16.496 32.1415 18.1977 33.098 20.3108C34.0545 22.424 34.2243 24.8094 33.5768 27.0367C32.9293 29.264 31.507 31.1866 29.5666 32.4575C27.6263 33.7285 25.2955 34.2641 22.995 33.9677C20.6944 33.6714 18.5756 32.5626 17.0207 30.8415C15.4657 29.1203 14.5771 26.9001 14.5152 24.5814C14.4532 22.2626 15.222 19.9981 16.6828 18.1964" stroke="#17191C" stroke-width="1.67442" stroke-miterlimit="10" stroke-linecap="round"/>
    <path d="M23.7736 16.9101L21.3082 15.9856C20.7059 15.7597 20.5116 15.0039 20.9302 14.5155L22.8473 12.2787" stroke="#17191C" stroke-width="1.67442" stroke-linecap="round"/>
  </svg>